<svg width="202" height="60" viewBox="0 0 202 60" fill="none" xmlns="http://www.w3.org/2000/svg">
<path d="M51.2462 59.3569C46.904 59.3569 41.6851 57.8956 36.0904 55.0983C29.9112 51.9252 24.2329 47.917 19.181 43.1156C15.4651 39.692 12.125 35.8926 9.16065 31.8009C6.6138 28.3773 4.48447 24.6197 2.85617 20.6533C1.39486 16.9791 0.685086 13.6808 0.726837 10.7582C0.768589 7.75205 1.64537 5.33046 3.31543 3.53514C4.35922 2.4496 5.61177 1.61457 7.03132 1.15531C8.61788 0.612535 10.2462 0.362026 11.9162 0.362026C14.7971 0.362026 18.0955 0.988299 21.6444 2.2826C25.5272 3.70215 29.2431 5.58097 32.7085 7.7938C27.7818 5.49746 23.0639 4.24492 19.0975 4.24492C15.2146 4.24492 12.0833 5.41396 10.0792 7.66854C6.94781 11.1339 6.69731 16.8539 9.32765 23.6594C11.958 30.4649 17.2187 37.6879 24.1077 43.8671C33.4183 52.2592 44.3154 57.4364 52.5822 57.4364C56.1311 57.4364 59.0955 56.4343 61.0995 54.5555C60.7655 55.14 60.348 55.6828 59.8888 56.1838C58.8867 57.2694 57.5924 58.0626 56.2146 58.5637C54.5446 59.1482 52.9162 59.3987 51.2462 59.3569ZM43.2716 53.4282C40.0985 52.2174 37.1342 50.6309 34.3786 48.6685L34.6291 48.752C36.0069 49.4618 37.4682 50.0881 38.9295 50.5891C41.2258 51.4241 44.6077 52.4262 47.6556 52.4262C50.2024 52.4262 52.1647 51.7164 53.5008 50.3386C54.9621 48.7938 55.6301 46.3722 55.4631 43.1573L57.1332 41.0698L56.9244 33.471C59.2625 37.0616 60.7655 40.6523 61.1831 43.9089C61.3918 45.4119 61.3501 46.915 61.0578 48.418C60.7655 49.7541 60.1393 51.0066 59.2625 52.0087C57.5507 54.0127 54.8368 55.0565 51.4549 55.0565C48.6576 55.0148 45.8602 54.4303 43.2716 53.4282ZM43.7309 23.4924L42.3949 21.9893V17.1461L49.3674 23.5341L43.7309 23.4924ZM24.6922 8.67058L22.3124 10.8834C18.513 10.8417 17.5945 10.2571 13.0435 12.6787C16.1332 6.08199 24.6922 8.67058 24.6922 8.67058Z" fill="#27467C"/>
<path d="M14.0038 24.7867H23.1057V12.9292C23.1057 10.6329 25.6943 10.8417 25.6943 10.8417H37.9692C37.9692 10.8417 40.3491 10.7582 40.3908 12.9292V24.7867H52.3317C55.0456 24.8702 55.0038 28.0015 55.0038 28.0015V39.525C55.0038 39.525 55.1709 42.2806 52.3317 42.3641H40.3908V49.7958C20.9346 41.8213 14.0038 24.7867 14.0038 24.7867Z" fill="#07CCEC"/>
<path d="M77.2156 15.2256C78.4682 15.2256 79.7207 15.4761 80.8898 15.9353C82.0171 16.3946 83.0608 17.0209 84.0211 17.8142C84.8979 16.9374 85.9834 16.2694 87.1107 15.8518C88.238 15.4343 89.4488 15.1838 90.6596 15.1838C92.0374 15.1838 93.3735 15.4761 94.626 16.0188C95.8368 16.5616 96.9224 17.3131 97.8409 18.2317C98.7594 19.1502 99.511 20.2775 100.012 21.4465C100.555 22.6573 100.847 23.9934 100.847 25.3294V43.7836C100.847 44.7021 100.471 45.5789 99.8032 46.2052C99.1769 46.8315 98.3002 47.2072 97.4234 47.2072C96.5048 47.2072 95.6281 46.8732 95.0018 46.2052C94.3338 45.5789 93.9997 44.7021 93.9997 43.7836V25.747C93.9997 24.8702 93.6657 23.9934 93.0395 23.3671C92.4132 22.7408 91.5364 22.3651 90.6179 22.4068C89.7411 22.4068 88.9061 22.7408 88.2798 23.3671C87.6535 23.9934 87.2777 24.8702 87.3195 25.747V29.8386C87.3195 30.7571 86.9855 31.5922 86.3592 32.2602C85.7329 32.9282 84.8979 33.2622 83.9794 33.2622C83.0608 33.304 82.1841 32.9282 81.5578 32.2602C80.9315 31.6339 80.5558 30.7571 80.5975 29.8386V25.747C80.5975 24.8284 80.2217 23.9934 79.5537 23.3671C78.9274 22.7408 78.0507 22.3651 77.1739 22.4068C76.2971 22.4068 75.4203 22.7408 74.794 23.3671C74.126 23.9934 73.7503 24.8284 73.7503 25.747V43.8254C73.7503 44.7021 73.4162 45.5789 72.79 46.247C72.1637 46.915 71.2869 47.2907 70.3684 47.249C69.4916 47.249 68.6148 46.915 68.0303 46.247C67.404 45.6207 67.07 44.7439 67.07 43.8254V25.4129C67.1535 24.0351 67.4875 22.6573 68.0303 21.4048C68.5313 20.194 69.2411 19.1085 70.1596 18.1899C71.0364 17.2714 72.0802 16.5616 73.2492 16.0188C74.5435 15.4761 75.8796 15.2256 77.2156 15.2256ZM116.045 22.9914C117.631 22.9914 119.218 23.3254 120.637 23.9934C122.099 24.6614 123.393 25.5382 124.52 26.6655C125.647 27.7928 126.524 29.0871 127.192 30.5066C127.86 31.9262 128.194 33.5127 128.194 35.0993C128.236 35.8926 127.86 36.6859 127.234 37.1451C126.524 37.6461 125.689 37.8966 124.812 37.8549H111.494C112.579 39.7755 114.124 40.694 116.045 40.694C116.504 40.694 116.963 40.6522 117.381 40.527C117.715 40.4435 118.049 40.3182 118.341 40.193C118.633 40.0677 118.884 39.9425 119.176 39.859C119.51 39.7337 119.802 39.692 120.136 39.692C120.804 39.692 121.431 39.9007 121.973 40.2765C122.474 40.6105 122.892 41.1115 123.142 41.6543C123.393 42.1971 123.476 42.8233 123.393 43.4496C123.309 44.1176 122.975 44.7439 122.516 45.2032C121.639 45.9129 120.595 46.4557 119.51 46.748C118.383 47.0402 117.172 47.2072 116.003 47.2072C114.416 47.2907 112.83 46.9567 111.41 46.3305C109.949 45.7042 108.655 44.7856 107.527 43.6584C106.4 42.5311 105.481 41.195 104.855 39.7337C104.229 38.2724 103.895 36.6859 103.895 35.0575C103.895 33.471 104.229 31.9262 104.855 30.5066C105.481 29.0453 106.4 27.751 107.485 26.6237C108.613 25.4964 109.907 24.5779 111.327 23.9516C112.83 23.3254 114.416 22.9914 116.045 22.9914ZM120.595 32.3019C120.136 31.3834 119.468 30.6319 118.591 30.1309C117.798 29.7133 116.921 29.5046 116.045 29.5046C115.126 29.5046 114.249 29.7133 113.456 30.1309C112.621 30.6736 111.911 31.4252 111.494 32.3019H120.595ZM150.865 15.3091C151.7 15.3091 152.535 15.6431 153.162 16.2276C153.83 16.8539 154.164 17.7307 154.122 18.6074V35.0993C154.122 36.6859 153.788 38.2724 153.162 39.7755C152.535 41.2368 151.617 42.5311 150.49 43.6166C149.362 44.7021 148.068 45.6207 146.607 46.247C145.145 46.915 143.601 47.2072 142.014 47.2072C140.427 47.2072 138.841 46.8732 137.421 46.247C135.96 45.6207 134.666 44.7439 133.538 43.6584C132.411 42.5311 131.493 41.2368 130.866 39.8172C130.198 38.3559 129.864 36.7276 129.864 35.0993C129.864 33.5127 130.198 31.9262 130.825 30.4231C131.451 28.9618 132.369 27.6675 133.497 26.582C134.624 25.4964 135.918 24.5779 137.38 23.9516C138.841 23.2836 140.427 22.9496 142.056 22.9914C143.976 22.9914 145.897 23.4506 147.609 24.3274V18.5657C147.609 18.1482 147.692 17.6889 147.901 17.3131C148.068 16.9374 148.318 16.5616 148.611 16.2694C148.903 15.9771 149.279 15.7266 149.655 15.5596C149.989 15.4343 150.448 15.3091 150.865 15.3091ZM141.972 29.5046C141.221 29.5046 140.469 29.6716 139.801 29.9639C139.133 30.2561 138.507 30.6736 138.006 31.1747C137.505 31.6757 137.087 32.3019 136.795 32.97C136.503 33.638 136.336 34.3478 136.336 35.0993C136.336 35.8508 136.503 36.6024 136.795 37.2704C137.087 37.9384 137.505 38.5229 138.006 39.0657C138.549 39.5667 139.133 39.9842 139.801 40.2765C140.469 40.5687 141.221 40.7357 141.972 40.7357C142.682 40.7357 143.434 40.5687 144.06 40.2765C144.728 39.9842 145.312 39.5667 145.855 39.0657C146.356 38.5647 146.774 37.9384 147.066 37.2704C147.358 36.6024 147.525 35.8508 147.525 35.0993C147.525 34.3478 147.358 33.5545 147.066 32.8865C146.774 32.2184 146.356 31.6339 145.855 31.0911C145.354 30.5901 144.728 30.1726 144.06 29.9221C143.434 29.6716 142.724 29.5046 141.972 29.5046ZM160.844 15.4761C161.679 15.4761 162.514 15.8101 163.057 16.4364C163.641 17.0626 163.975 17.8977 163.975 18.7327C163.975 19.5677 163.641 20.4028 163.057 21.029C162.472 21.6553 161.679 22.0311 160.844 21.9893C159.967 21.9893 159.132 21.6553 158.464 21.0708C157.838 20.4028 157.462 19.526 157.546 18.6074C157.587 17.7724 157.921 16.9791 158.589 16.3946C159.174 15.8101 159.967 15.4761 160.844 15.4761ZM160.844 23.1584C161.679 23.1584 162.472 23.4924 163.015 24.1186C163.6 24.7449 163.934 25.5799 163.975 26.415V44.1594C164.017 44.9944 163.683 45.7877 163.14 46.414C162.514 47.0402 161.721 47.3742 160.844 47.416C160.051 47.4577 159.257 47.1655 158.631 46.6227C158.005 46.0382 157.629 45.2449 157.546 44.3681V26.2062C157.587 25.3712 157.963 24.6197 158.589 24.0351C159.174 23.4924 160.009 23.1584 160.844 23.1584ZM198.42 15.4761C199.255 15.4761 200.09 15.8101 200.633 16.4364C201.218 17.0626 201.552 17.8977 201.552 18.7327C201.552 19.5677 201.218 20.4028 200.633 21.029C200.049 21.6553 199.255 22.0311 198.42 21.9893C197.544 21.9893 196.709 21.6553 196.04 21.0708C195.414 20.4028 195.038 19.526 195.122 18.6074C195.164 17.7724 195.498 16.9791 196.166 16.3946C196.75 15.8101 197.544 15.4761 198.42 15.4761ZM198.42 23.1584C199.255 23.1584 200.049 23.4924 200.591 24.1186C201.176 24.7449 201.51 25.5799 201.552 26.415V44.1594C201.593 44.9944 201.259 45.7877 200.717 46.414C200.09 47.0402 199.297 47.3742 198.42 47.416C197.627 47.4577 196.834 47.1655 196.208 46.6227C195.581 46.0382 195.205 45.2449 195.122 44.3681V26.2062C195.164 25.3712 195.539 24.6197 196.166 24.0351C196.75 23.4924 197.585 23.1584 198.42 23.1584Z" fill="#27467C"/>
<path d="M186.479 23.5341C187.064 22.9078 187.857 22.5738 188.692 22.6156C189.569 22.6156 190.362 22.9914 190.989 23.5759C191.573 24.1604 191.907 24.9954 191.907 25.8305C191.907 26.7072 191.615 27.5005 190.989 28.1268L184.475 34.6818L190.989 41.2785C191.573 41.9048 191.949 42.6981 191.949 43.5749C192.032 45.3284 190.655 46.7897 188.901 46.8732C188.859 46.8732 188.776 46.8732 188.734 46.8732C187.815 46.8732 186.98 46.4975 186.354 45.8294L179.841 39.358L173.328 45.9129C172.701 46.4557 171.908 46.7897 171.073 46.8315C170.196 46.915 169.319 46.581 168.735 45.9129C168.15 45.3284 167.775 44.5351 167.775 43.7001C167.733 42.8233 168.025 41.9883 168.651 41.362L175.332 34.6818L168.651 28.0015C168.025 27.417 167.733 26.6237 167.816 25.7887C167.9 24.9537 168.234 24.1604 168.777 23.5341C169.361 22.8661 170.238 22.4903 171.115 22.5321C171.95 22.6156 172.743 22.9496 173.369 23.5341L179.841 30.0891L186.479 23.5341Z" fill="#07CCEC"/>
</svg>
